<svg width="48" height="48" viewBox="0 0 48 48" fill="none" xmlns="http://www.w3.org/2000/svg">
<g clip-path="url(#clip0)">
<path fill-rule="evenodd" clip-rule="evenodd" d="M0 0H48V48H0V0ZM9.33271 11.7982V21.1418H10.4182V11.7982H9.33271ZM24.7909 11.7982H23.6236L21.4854 17.8036C21.24 18.4909 21.0382 19.1782 20.8854 19.8709C20.7382 19.2164 20.5418 18.54 20.2964 17.8473L18.1473 11.7982H16.9963L20.3454 21.1418H21.42L24.7909 11.7982ZM38.6836 21.1418H37.4454L32.34 13.2982H32.2909C32.3564 14.22 32.3945 15.06 32.3945 15.8291V21.1418H31.3909V11.7982H32.6182L37.7127 19.6091H37.7618C37.7545 19.5319 37.7446 19.3381 37.729 19.0294L37.7289 19.0287L37.7289 19.0281C37.7213 18.8792 37.7124 18.7038 37.7018 18.5018C37.6691 17.88 37.6636 17.4327 37.6691 17.16V11.7982H38.6836V21.1418ZM12.1309 27.5073H9.22362V36.8564H12.72C13.7782 36.8564 14.6127 36.6218 15.2291 36.1418C15.8454 35.6618 16.1509 34.9964 16.1509 34.1455C16.1509 33.5455 16.02 33.06 15.7582 32.7C15.4963 32.34 15.0709 32.0891 14.4763 31.9582V31.8927C14.9127 31.8218 15.2618 31.6091 15.5236 31.2491C15.7854 30.8891 15.9163 30.4309 15.9163 29.8745C15.9163 29.0509 15.6164 28.4509 15.0163 28.0745C14.4163 27.6982 13.4563 27.5073 12.1309 27.5073ZM12.3545 31.2109H11.2036V29.1327H12.2454C12.8127 29.1327 13.2273 29.2145 13.4891 29.3673C13.7509 29.52 13.8818 29.7764 13.8818 30.1364C13.8818 30.5182 13.7618 30.7909 13.5218 30.96C13.2818 31.1291 12.8891 31.2109 12.3545 31.2109ZM11.2036 35.2146V32.7818H12.4254C13.5327 32.7818 14.0891 33.1691 14.0891 33.9436C14.0891 34.3745 13.9582 34.6964 13.7018 34.9036C13.4454 35.1109 13.0418 35.2146 12.4963 35.2146H11.2036ZM24.0709 31.6036H27.7745V36.4473C27.1745 36.6436 26.6073 36.78 26.0782 36.8618C25.5491 36.9436 25.0036 36.9818 24.4527 36.9818C23.04 36.9818 21.9654 36.5673 21.2236 35.7382C20.4818 34.9091 20.1109 33.72 20.1109 32.1709C20.1109 30.66 20.5418 29.4873 21.4036 28.6418C22.2654 27.7964 23.4654 27.3764 24.9927 27.3764C25.9527 27.3764 26.8745 27.5673 27.7691 27.9491L27.1091 29.5364C26.4273 29.1982 25.7182 29.0236 24.9818 29.0236C24.1254 29.0236 23.4382 29.3127 22.9254 29.8855C22.4127 30.4582 22.1509 31.2327 22.1509 32.2036C22.1509 33.2182 22.3582 33.9927 22.7727 34.5273C23.1873 35.0618 23.7927 35.3291 24.5836 35.3291C24.9982 35.3291 25.4182 35.2855 25.8436 35.2036V33.2564H24.0709V31.6036ZM34.4836 36.8509V33.2673H35.5418L37.7727 36.8509H39.9709C39.5454 36.24 38.6291 34.8818 37.2218 32.7818C37.7782 32.5364 38.2091 32.2036 38.5091 31.7727C38.8091 31.3418 38.9618 30.8564 38.9618 30.3055C38.9618 29.3618 38.6564 28.6636 38.0454 28.2C37.4345 27.7364 36.4964 27.5073 35.2254 27.5073H32.5036V36.8509H34.4836ZM36.5073 31.3473C36.2127 31.5546 35.7491 31.6582 35.1218 31.6582H34.4782V29.1382H35.0782C35.7218 29.1382 36.1909 29.2364 36.4964 29.4218C36.8018 29.6073 36.9545 29.9236 36.9545 30.3655C36.9545 30.8127 36.8018 31.14 36.5073 31.3473Z" fill="#182028"/>
</g>
<defs>
<clipPath id="clip0">
<rect width="48" height="48" fill="white"/>
</clipPath>
</defs>
</svg>
