<svg width="173" height="38" viewBox="0 0 173 38" fill="none" xmlns="http://www.w3.org/2000/svg">
<path opacity="0.35" d="M140.195 18.5781V25.9688C140.195 27.2708 139.802 28.2943 139.016 29.0391C138.229 29.7839 137.148 30.1562 135.773 30.1562C134.398 30.1562 133.333 29.7812 132.578 29.0312C131.828 28.2812 131.453 27.25 131.453 25.9375V18.5781H132.781V26.0312C132.781 26.9844 133.042 27.7161 133.562 28.2266C134.083 28.737 134.849 28.9922 135.859 28.9922C136.823 28.9922 137.565 28.737 138.086 28.2266C138.607 27.7109 138.867 26.974 138.867 26.0156V18.5781H140.195ZM143.227 30V18.5781H144.555V30H143.227ZM151.836 18.5781L147.578 30H146.281L150.539 18.5781H151.836ZM162.195 18.5781V25.9688C162.195 27.2708 161.802 28.2943 161.016 29.0391C160.229 29.7839 159.148 30.1562 157.773 30.1562C156.398 30.1562 155.333 29.7812 154.578 29.0312C153.828 28.2812 153.453 27.25 153.453 25.9375V18.5781H154.781V26.0312C154.781 26.9844 155.042 27.7161 155.562 28.2266C156.083 28.737 156.849 28.9922 157.859 28.9922C158.823 28.9922 159.565 28.737 160.086 28.2266C160.607 27.7109 160.867 26.974 160.867 26.0156V18.5781H162.195ZM172.828 30H171.32L168.25 24.9766L165.125 30H163.719L167.516 24.0312L163.977 18.5781H165.445L168.281 23.1016L171.141 18.5781H172.555L169.016 23.9844L172.828 30Z" fill="#252A26"/>
<path d="M2.74805 30V10.0117H5.07227V30H2.74805ZM12.1078 30L6.42031 15.0156H8.85391L12.0805 23.9023C12.8096 25.9805 13.238 27.3294 13.3656 27.9492H13.475C13.5753 27.4661 13.8897 26.4681 14.4184 24.9551C14.9561 23.4329 16.1547 20.1198 18.0141 15.0156H20.4477L14.7602 30H12.1078ZM30.6688 30L30.2176 27.8672H30.1082C29.3608 28.806 28.6134 29.444 27.866 29.7812C27.1277 30.1094 26.2026 30.2734 25.0906 30.2734C23.6049 30.2734 22.4383 29.8906 21.5906 29.125C20.7521 28.3594 20.3328 27.2702 20.3328 25.8574C20.3328 22.8314 22.7527 21.2454 27.5926 21.0996L30.1355 21.0176V20.0879C30.1355 18.9121 29.8803 18.0462 29.3699 17.4902C28.8686 16.9251 28.062 16.6426 26.95 16.6426C25.7013 16.6426 24.2885 17.0254 22.7117 17.791L22.0145 16.0547C22.7527 15.6536 23.5594 15.3392 24.4344 15.1113C25.3185 14.8835 26.2026 14.7695 27.0867 14.7695C28.8732 14.7695 30.1948 15.166 31.0516 15.959C31.9174 16.752 32.3504 18.0234 32.3504 19.7734V30H30.6688ZM25.5418 28.4004C26.9546 28.4004 28.062 28.013 28.8641 27.2383C29.6753 26.4635 30.0809 25.3789 30.0809 23.9844V22.6309L27.8113 22.7266C26.0066 22.7904 24.7033 23.0729 23.9012 23.5742C23.1082 24.0664 22.7117 24.8366 22.7117 25.8848C22.7117 26.7051 22.9578 27.3294 23.45 27.7578C23.9513 28.1862 24.6486 28.4004 25.5418 28.4004ZM45.8937 30V20.3066C45.8937 19.0853 45.6158 18.1738 45.0598 17.5723C44.5038 16.9707 43.6333 16.6699 42.4484 16.6699C40.8807 16.6699 39.7323 17.0938 39.0031 17.9414C38.274 18.7891 37.9094 20.1882 37.9094 22.1387V30H35.6398V15.0156H37.4855L37.8547 17.0664H37.9641C38.4289 16.3281 39.0806 15.7585 39.9191 15.3574C40.7577 14.9473 41.6919 14.7422 42.7219 14.7422C44.5266 14.7422 45.8846 15.1797 46.7961 16.0547C47.7076 16.9206 48.1633 18.3105 48.1633 20.2246V30H45.8937ZM51.5484 10.0117H57.7691C60.6038 10.0117 62.6591 10.4173 63.9352 11.2285C65.2203 12.0306 65.8629 13.3112 65.8629 15.0703C65.8629 16.2643 65.5803 17.2441 65.0152 18.0098C64.4592 18.7754 63.7164 19.2357 62.7867 19.3906V19.5273C64.0536 19.8099 64.9651 20.3385 65.5211 21.1133C66.0862 21.888 66.3688 22.918 66.3688 24.2031C66.3688 26.026 65.7079 27.4479 64.3863 28.4688C63.0738 29.4896 61.2874 30 59.027 30H51.5484V10.0117ZM55.7867 17.9277H58.2477C59.3961 17.9277 60.2255 17.75 60.7359 17.3945C61.2555 17.0391 61.5152 16.4512 61.5152 15.6309C61.5152 14.8652 61.2327 14.3184 60.6676 13.9902C60.1116 13.653 59.2275 13.4844 58.0152 13.4844H55.7867V17.9277ZM55.7867 21.291V26.5H58.5484C59.7151 26.5 60.5764 26.2767 61.1324 25.8301C61.6884 25.3835 61.9664 24.6999 61.9664 23.7793C61.9664 22.1204 60.7815 21.291 58.4117 21.291H55.7867ZM71.9551 22.3301C71.9551 23.8431 72.2012 24.987 72.6934 25.7617C73.1947 26.5365 74.0059 26.9238 75.127 26.9238C76.2389 26.9238 77.0365 26.541 77.5195 25.7754C78.0117 25.0007 78.2578 23.8522 78.2578 22.3301C78.2578 20.8171 78.0117 19.6823 77.5195 18.9258C77.0273 18.1693 76.2207 17.791 75.0996 17.791C73.9876 17.791 73.1855 18.1693 72.6934 18.9258C72.2012 19.6732 71.9551 20.8079 71.9551 22.3301ZM82.5234 22.3301C82.5234 24.8184 81.8672 26.7643 80.5547 28.168C79.2422 29.5716 77.4147 30.2734 75.0723 30.2734C73.6048 30.2734 72.3105 29.9544 71.1895 29.3164C70.0684 28.6693 69.207 27.7441 68.6055 26.541C68.0039 25.3379 67.7031 23.9342 67.7031 22.3301C67.7031 19.8327 68.3548 17.8913 69.6582 16.5059C70.9616 15.1204 72.7936 14.4277 75.1543 14.4277C76.6217 14.4277 77.916 14.7467 79.0371 15.3848C80.1582 16.0228 81.0195 16.9388 81.6211 18.1328C82.2227 19.3268 82.5234 20.7259 82.5234 22.3301ZM97.8715 14.7148V16.834L95.4789 17.4492C95.9164 18.1328 96.1352 18.8984 96.1352 19.7461C96.1352 21.3867 95.5609 22.6673 94.4125 23.5879C93.2732 24.4993 91.6872 24.9551 89.6547 24.9551L88.9027 24.9141L88.2875 24.8457C87.8591 25.1738 87.6449 25.5384 87.6449 25.9395C87.6449 26.541 88.4105 26.8418 89.9418 26.8418H92.5395C94.2165 26.8418 95.4926 27.2018 96.3676 27.9219C97.2517 28.6419 97.6937 29.6992 97.6937 31.0938C97.6937 32.8802 96.9464 34.2656 95.4516 35.25C93.9659 36.2344 91.8285 36.7266 89.0395 36.7266C86.9066 36.7266 85.2751 36.3529 84.1449 35.6055C83.0238 34.8672 82.4633 33.8281 82.4633 32.4883C82.4633 31.5677 82.7504 30.7975 83.3246 30.1777C83.8988 29.5579 84.7419 29.1159 85.8539 28.8516C85.4255 28.6693 85.0518 28.373 84.7328 27.9629C84.4138 27.5436 84.2543 27.1016 84.2543 26.6367C84.2543 26.0534 84.4229 25.5703 84.7602 25.1875C85.0974 24.7956 85.585 24.4128 86.223 24.0391C85.421 23.6927 84.7829 23.1367 84.309 22.3711C83.8441 21.6055 83.6117 20.7031 83.6117 19.6641C83.6117 17.9961 84.154 16.7064 85.2387 15.7949C86.3233 14.8835 87.8728 14.4277 89.8871 14.4277C90.3155 14.4277 90.8214 14.4688 91.4047 14.5508C91.9971 14.6237 92.3754 14.6784 92.5395 14.7148H97.8715ZM86.0727 32.1602C86.0727 32.7344 86.3461 33.1855 86.893 33.5137C87.449 33.8418 88.2237 34.0059 89.2172 34.0059C90.712 34.0059 91.8832 33.8008 92.7309 33.3906C93.5785 32.9805 94.0023 32.4199 94.0023 31.709C94.0023 31.1348 93.7517 30.7383 93.2504 30.5195C92.7491 30.3008 91.9743 30.1914 90.9262 30.1914H88.766C88.0004 30.1914 87.3578 30.3691 86.8383 30.7246C86.3279 31.0892 86.0727 31.5677 86.0727 32.1602ZM87.5902 19.7188C87.5902 20.5482 87.7771 21.2044 88.1508 21.6875C88.5336 22.1706 89.1124 22.4121 89.8871 22.4121C90.671 22.4121 91.2452 22.1706 91.6098 21.6875C91.9743 21.2044 92.1566 20.5482 92.1566 19.7188C92.1566 17.8776 91.4001 16.957 89.8871 16.957C88.3559 16.957 87.5902 17.8776 87.5902 19.7188ZM108.708 30L107.901 27.9219H107.792C107.09 28.806 106.365 29.4212 105.618 29.7676C104.88 30.1048 103.914 30.2734 102.72 30.2734C101.252 30.2734 100.095 29.8542 99.2469 29.0156C98.4083 28.1771 97.9891 26.9831 97.9891 25.4336C97.9891 23.8112 98.5542 22.6172 99.6844 21.8516C100.824 21.0768 102.537 20.6484 104.825 20.5664L107.477 20.4844V19.8145C107.477 18.265 106.684 17.4902 105.098 17.4902C103.877 17.4902 102.442 17.8594 100.792 18.5977L99.4109 15.7812C101.17 14.8607 103.121 14.4004 105.262 14.4004C107.313 14.4004 108.886 14.847 109.979 15.7402C111.073 16.6335 111.62 17.9915 111.62 19.8145V30H108.708ZM107.477 22.918L105.864 22.9727C104.652 23.0091 103.749 23.2279 103.157 23.6289C102.565 24.0299 102.268 24.6406 102.268 25.4609C102.268 26.6367 102.943 27.2246 104.292 27.2246C105.258 27.2246 106.028 26.9466 106.602 26.3906C107.186 25.8346 107.477 25.0964 107.477 24.1758V22.918ZM123.058 14.4277C123.623 14.4277 124.092 14.4688 124.466 14.5508L124.152 18.4609C123.814 18.3698 123.404 18.3242 122.921 18.3242C121.59 18.3242 120.551 18.666 119.804 19.3496C119.066 20.0332 118.696 20.9902 118.696 22.2207V30H114.527V14.7148H117.685L118.3 17.2852H118.505C118.979 16.4284 119.617 15.7402 120.419 15.2207C121.23 14.6921 122.11 14.4277 123.058 14.4277Z" fill="#252A26"/>
</svg>
