<svg xmlns="http://www.w3.org/2000/svg" viewBox="0 0 176 88"><defs><style>.cls-1,.cls-2{fill:#252a26;}.cls-2{opacity:0.8;}</style></defs><g id="Layer_2" data-name="Layer 2"><g id="Layer_1-2" data-name="Layer 1"><path class="cls-1" d="M0,0V88H88V0ZM19.1,52.57h-2V35.43h2Zm20.18,0h-2L31.17,35.43h2.11l3.93,11.09a28.87,28.87,0,0,1,1.08,3.71,31.68,31.68,0,0,1,1.1-3.78l3.92-11h2.14Zm31.64,0H68.64L59.28,38.19h-.09c.12,1.69.18,3.23.18,4.64v9.74H57.53V35.43h2.25l9.34,14.32h.1c0-.21,0-.88-.11-2s-.07-2-.06-2.45V35.43h1.87Z"/><path class="cls-2" d="M112.79,41.77a1.71,1.71,0,0,0,.66-1.51,1.53,1.53,0,0,0-.72-1.42,4.7,4.7,0,0,0-2.28-.42h-1.91v3.8h2.11A3.92,3.92,0,0,0,112.79,41.77Z"/><path class="cls-2" d="M154.91,38.93a5.12,5.12,0,0,0-2.59-.51h-1.1V43h1.17a4.5,4.5,0,0,0,2.54-.57,2,2,0,0,0,.82-1.8A1.88,1.88,0,0,0,154.91,38.93Z"/><path class="cls-2" d="M110.79,45.11h-2.25v4.46h2.37a3.5,3.5,0,0,0,2.21-.57,2.11,2.11,0,0,0,.72-1.76C113.84,45.82,112.82,45.11,110.79,45.11Z"/><path class="cls-2" d="M88,0V88h88V0Zm27.92,51.26a7.37,7.37,0,0,1-4.6,1.31h-6.41V35.44h5.33a10.29,10.29,0,0,1,5.29,1,3.61,3.61,0,0,1,1.65,3.3,4.12,4.12,0,0,1-.72,2.51,2.86,2.86,0,0,1-1.92,1.19v.12A3.73,3.73,0,0,1,116.89,45a5,5,0,0,1-1,6.3Zm23,.57a18.69,18.69,0,0,1-3.11.76,21,21,0,0,1-3,.22,7.55,7.55,0,0,1-5.93-2.28q-2-2.28-2-6.55a8.65,8.65,0,0,1,2.37-6.47,9,9,0,0,1,6.58-2.32,12.66,12.66,0,0,1,5.09,1.06l-1.21,2.9a8.67,8.67,0,0,0-3.9-.93A4.82,4.82,0,0,0,130,39.8a6.15,6.15,0,0,0-1.42,4.25,6.84,6.84,0,0,0,1.15,4.26,4,4,0,0,0,3.32,1.47,11.45,11.45,0,0,0,2.31-.23V46h-3.25V43h6.8Zm18.32.74L153.15,46h-1.93v6.57h-3.64V35.44h5a8.5,8.5,0,0,1,5.16,1.27,5.07,5.07,0,0,1,.85,6.55,5.53,5.53,0,0,1-2.36,1.85q3.87,5.78,5,7.46Z"/></g></g></svg>