<svg width="44" height="44" viewBox="0 0 44 44" fill="none" xmlns="http://www.w3.org/2000/svg">
<path d="M32.5832 18.9438C32.7508 18.7984 33 18.9344 33 19.1641V28.75C33 29.9922 32.0762 31 30.9375 31H13.0625C11.9238 31 11 29.9922 11 28.75V19.1688C11 18.9344 11.2449 18.8031 11.4168 18.9484C12.3793 19.7641 13.6555 20.8 18.0383 24.2734C18.9449 24.9953 20.4746 26.5141 22 26.5047C23.534 26.5188 25.0937 24.9672 25.966 24.2734C30.3488 20.8 31.6207 19.7594 32.5832 18.9438ZM22 25C22.9969 25.0188 24.432 23.6313 25.1539 23.0594C30.8559 18.5453 31.2898 18.1516 32.6047 17.0266C32.8539 16.8156 33 16.4875 33 16.1406V15.25C33 14.0078 32.0762 13 30.9375 13H13.0625C11.9238 13 11 14.0078 11 15.25V16.1406C11 16.4875 11.1461 16.8109 11.3953 17.0266C12.7102 18.1469 13.1441 18.5453 18.8461 23.0594C19.568 23.6313 21.0031 25.0188 22 25Z" fill="#182028"/>
</svg>
