<svg width="48" height="48" viewBox="0 0 48 48" fill="none" xmlns="http://www.w3.org/2000/svg">
<path d="M10.0714 15.4592H37.9286C38.5203 15.4592 39 14.9658 39 14.3571V11.602C39 10.9934 38.5203 10.5 37.9286 10.5H10.0714C9.47967 10.5 9 10.9934 9 11.602V14.3571C9 14.9658 9.47967 15.4592 10.0714 15.4592ZM10.0714 26.4796H37.9286C38.5203 26.4796 39 25.9862 39 25.3776V22.6224C39 22.0138 38.5203 21.5204 37.9286 21.5204H10.0714C9.47967 21.5204 9 22.0138 9 22.6224V25.3776C9 25.9862 9.47967 26.4796 10.0714 26.4796ZM10.0714 37.5H37.9286C38.5203 37.5 39 37.0066 39 36.398V33.6429C39 33.0342 38.5203 32.5408 37.9286 32.5408H10.0714C9.47967 32.5408 9 33.0342 9 33.6429V36.398C9 37.0066 9.47967 37.5 10.0714 37.5Z" fill="#252A26"/>
</svg>
