<svg width="44" height="44" viewBox="0 0 44 44" fill="none" xmlns="http://www.w3.org/2000/svg">
<path d="M22.2515 30.9953H22.1614C20.9247 30.9858 19.7023 30.7298 18.5658 30.242C17.4294 29.7543 16.4016 29.0447 15.5428 28.1549C13.9502 26.4518 13.0449 24.2192 13.0016 21.8879C12.9583 19.5566 13.7801 17.2919 15.3083 15.5309C16.2929 14.4275 17.5306 13.5796 18.9152 13.0602C19.0767 12.998 19.2528 12.9836 19.4223 13.0188C19.5918 13.054 19.7475 13.1372 19.871 13.2585C19.9854 13.3751 20.0659 13.5206 20.104 13.6794C20.1421 13.8383 20.1364 14.0044 20.0874 14.1602C19.5932 15.5137 19.4953 16.98 19.8052 18.3871C20.115 19.7942 20.8198 21.0837 21.8367 22.1044C22.8632 23.1182 24.1558 23.8206 25.5649 24.1301C26.974 24.4397 28.442 24.3439 29.7989 23.8537C29.9604 23.7968 30.1347 23.7871 30.3015 23.8257C30.4684 23.8643 30.6207 23.9496 30.7409 24.0716C30.861 24.1936 30.9439 24.3473 30.9799 24.5147C31.0158 24.6821 31.0034 24.8563 30.9441 25.0169C30.4834 26.2466 29.7638 27.3629 28.834 28.2901C27.9692 29.1524 26.9424 29.8353 25.8127 30.2996C24.6831 30.7638 23.4728 31.0002 22.2515 30.9953Z" fill="#182028"/>
</svg>
