<svg width="24" height="24" viewBox="0 0 24 24" fill="none" xmlns="http://www.w3.org/2000/svg">
<path d="M21.6211 9.40341C21.7734 9.27131 22 9.39489 22 9.60369V18.3182C22 19.4474 21.1602 20.3636 20.125 20.3636H3.875C2.83984 20.3636 2 19.4474 2 18.3182V9.60795C2 9.39489 2.22266 9.27557 2.37891 9.40767C3.25391 10.1491 4.41406 11.0909 8.39844 14.2486C9.22266 14.9048 10.6133 16.2855 12 16.277C13.3945 16.2898 14.8125 14.8793 15.6055 14.2486C19.5898 11.0909 20.7461 10.1449 21.6211 9.40341ZM12 14.9091C12.9063 14.9261 14.2109 13.6648 14.8672 13.1449C20.0508 9.04119 20.4453 8.68324 21.6406 7.66051C21.8672 7.46875 22 7.17045 22 6.85511V6.04545C22 4.91619 21.1602 4 20.125 4H3.875C2.83984 4 2 4.91619 2 6.04545V6.85511C2 7.17045 2.13281 7.46449 2.35937 7.66051C3.55469 8.67898 3.94922 9.04119 9.13281 13.1449C9.78906 13.6648 11.0937 14.9261 12 14.9091Z" fill="#182028"/>
</svg>
