<svg width="44" height="44" viewBox="0 0 44 44" fill="none" xmlns="http://www.w3.org/2000/svg">
<path d="M29.9442 18.0781C29.9569 18.2571 29.9569 18.4361 29.9569 18.6151C29.9569 24.0739 25.8326 30.3637 18.2944 30.3637C15.9721 30.3637 13.8147 29.6861 12 28.51C12.33 28.5483 12.6472 28.5611 12.9898 28.5611C14.9061 28.5611 16.6701 27.9092 18.0787 26.7969C16.2767 26.7586 14.7665 25.5697 14.2462 23.9333C14.5 23.9716 14.7538 23.9972 15.0203 23.9972C15.3883 23.9972 15.7564 23.946 16.099 23.8566C14.2208 23.473 12.8122 21.8111 12.8122 19.804V19.7529C13.3578 20.0597 13.9924 20.2515 14.6649 20.277C13.5609 19.5355 12.8375 18.2699 12.8375 16.8381C12.8375 16.071 13.0406 15.3679 13.3959 14.7542C15.4137 17.2599 18.4467 18.8963 21.8477 19.0753C21.7843 18.7685 21.7462 18.4489 21.7462 18.1293C21.7462 15.8537 23.5736 14 25.8452 14C27.0254 14 28.0914 14.4986 28.8401 15.304C29.7665 15.125 30.6548 14.7798 31.4416 14.3068C31.137 15.2657 30.4898 16.0711 29.6396 16.5824C30.4645 16.4929 31.264 16.2628 32 15.9432C31.4417 16.7614 30.7437 17.49 29.9442 18.0781V18.0781Z" fill="#182028"/>
</svg>
