<svg width="48" height="48" viewBox="0 0 48 48" fill="none" xmlns="http://www.w3.org/2000/svg">
<path d="M38.4316 20.1051C38.6602 19.907 39 20.0923 39 20.4055V33.4773C39 35.1712 37.7402 36.5455 36.1875 36.5455H11.8125C10.2598 36.5455 9 35.1712 9 33.4773V20.4119C9 20.0923 9.33398 19.9134 9.56836 20.1115C10.8809 21.2237 12.6211 22.6364 18.5977 27.3729C19.834 28.3572 21.9199 30.4283 24 30.4155C26.0918 30.4347 28.2187 28.3189 29.4082 27.3729C35.3848 22.6364 37.1191 21.2173 38.4316 20.1051ZM24 28.3636C25.3594 28.3892 27.3164 26.4972 28.3008 25.7173C36.0762 19.5618 36.668 19.0249 38.4609 17.4908C38.8008 17.2031 39 16.7557 39 16.2827V15.0682C39 13.3743 37.7402 12 36.1875 12H11.8125C10.2598 12 9 13.3743 9 15.0682V16.2827C9 16.7557 9.19922 17.1967 9.53906 17.4908C11.332 19.0185 11.9238 19.5618 19.6992 25.7173C20.6836 26.4972 22.6406 28.3892 24 28.3636Z" fill="#252A26"/>
</svg>
