<svg width="25" height="25" viewBox="0 0 25 25" fill="none" xmlns="http://www.w3.org/2000/svg">
<path d="M2 13C2 7.47581 6.47581 3 12 3C17.5242 3 22 7.47581 22 13C22 18.5242 17.5242 23 12 23C6.47581 23 2 18.5242 2 13ZM7.79032 14.1653L10.7097 11.121V18.4839C10.7097 19.0202 11.1411 19.4516 11.6774 19.4516H12.3226C12.8589 19.4516 13.2903 19.0202 13.2903 18.4839V11.121L16.2097 14.1653C16.5847 14.5565 17.2097 14.5645 17.5927 14.1815L18.0323 13.7379C18.4113 13.3589 18.4113 12.746 18.0323 12.371L12.6855 7.02016C12.3065 6.64113 11.6935 6.64113 11.3185 7.02016L5.96371 12.371C5.58468 12.75 5.58468 13.3629 5.96371 13.7379L6.40323 14.1815C6.79032 14.5645 7.41532 14.5565 7.79032 14.1653Z" fill="#252A26"/>
</svg>
