<svg width="44" height="44" viewBox="0 0 44 44" fill="none" xmlns="http://www.w3.org/2000/svg">
<path d="M17.803 15.731C18.392 15.731 18.922 15.782 19.408 15.886C19.891 15.989 20.303 16.159 20.651 16.394C20.994 16.629 21.262 16.941 21.455 17.333C21.642 17.72 21.735 18.204 21.735 18.776C21.735 19.396 21.595 19.914 21.314 20.327C21.031 20.741 20.614 21.08 20.058 21.342C20.815 21.561 21.376 21.944 21.748 22.488C22.122 23.037 22.305 23.694 22.305 24.464C22.305 25.089 22.186 25.626 21.947 26.077C21.7167 26.5213 21.3826 26.9034 20.973 27.191C20.5488 27.4864 20.0749 27.7032 19.574 27.831C19.0488 27.9689 18.508 28.0381 17.965 28.037H12V15.731H17.803ZM17.452 20.703C17.932 20.703 18.33 20.589 18.644 20.358C18.956 20.13 19.107 19.754 19.107 19.239C19.107 18.953 19.056 18.717 18.956 18.532C18.8586 18.354 18.7144 18.206 18.539 18.104C18.3554 17.9951 18.1528 17.9222 17.942 17.889C17.7122 17.8461 17.4788 17.8257 17.245 17.828H14.71V20.703H17.452V20.703ZM17.603 25.942C17.87 25.942 18.124 25.919 18.363 25.865C18.604 25.813 18.818 25.729 19 25.604C19.182 25.484 19.332 25.321 19.44 25.113C19.549 24.907 19.602 24.638 19.602 24.315C19.602 23.681 19.423 23.23 19.069 22.957C18.714 22.687 18.238 22.553 17.655 22.553H14.71V25.943H17.603V25.942ZM26.168 25.901C26.535 26.259 27.064 26.439 27.752 26.439C28.245 26.439 28.671 26.314 29.03 26.066C29.384 25.817 29.6 25.551 29.683 25.276H31.838C31.492 26.348 30.967 27.114 30.249 27.575C29.54 28.038 28.677 28.268 27.669 28.268C26.967 28.268 26.335 28.155 25.769 27.931C25.2257 27.7194 24.7348 27.3926 24.33 26.973C23.9319 26.5436 23.6241 26.0386 23.425 25.488C23.2061 24.8791 23.0977 24.236 23.105 23.589C23.105 22.923 23.216 22.3 23.434 21.725C23.6409 21.1692 23.9587 20.6612 24.368 20.232C24.773 19.812 25.253 19.481 25.812 19.238C26.3998 18.9908 27.0324 18.8675 27.67 18.876C28.424 18.876 29.083 19.022 29.649 19.316C30.1979 19.5966 30.6738 20.0014 31.039 20.498C31.402 20.991 31.661 21.556 31.822 22.189C31.983 22.821 32.039 23.481 31.993 24.172H25.562C25.563 24.876 25.8 25.543 26.168 25.901V25.901ZM28.98 21.22C28.689 20.898 28.197 20.724 27.595 20.724C27.204 20.724 26.881 20.789 26.621 20.923C26.3833 21.0431 26.1724 21.2101 26.001 21.414C25.8505 21.5991 25.7389 21.8127 25.673 22.042C25.6153 22.2332 25.5781 22.43 25.562 22.629H29.544C29.486 22.005 29.272 21.544 28.98 21.22V21.22ZM25.062 16.557H30.051V17.772H25.062V16.557Z" fill="#182028"/>
</svg>
