<svg width="24" height="24" viewBox="0 0 24 24" fill="none" xmlns="http://www.w3.org/2000/svg">
<path d="M2.71429 6.30612H21.2857C21.6802 6.30612 22 5.97721 22 5.57143V3.73469C22 3.32891 21.6802 3 21.2857 3H2.71429C2.31978 3 2 3.32891 2 3.73469V5.57143C2 5.97721 2.31978 6.30612 2.71429 6.30612ZM2.71429 13.6531H21.2857C21.6802 13.6531 22 13.3241 22 12.9184V11.0816C22 10.6759 21.6802 10.3469 21.2857 10.3469H2.71429C2.31978 10.3469 2 10.6759 2 11.0816V12.9184C2 13.3241 2.31978 13.6531 2.71429 13.6531ZM2.71429 21H21.2857C21.6802 21 22 20.6711 22 20.2653V18.4286C22 18.0228 21.6802 17.6939 21.2857 17.6939H2.71429C2.31978 17.6939 2 18.0228 2 18.4286V20.2653C2 20.6711 2.31978 21 2.71429 21Z" fill="#252A26"/>
</svg>
