<svg width="48" height="48" viewBox="0 0 48 48" fill="none" xmlns="http://www.w3.org/2000/svg">
<path d="M7.40613 24.8325C7.40613 15.9938 14.5674 8.83252 23.4061 8.83252C32.2448 8.83252 39.4061 15.9938 39.4061 24.8325C39.4061 33.6712 32.2448 40.8325 23.4061 40.8325C14.5674 40.8325 7.40613 33.6712 7.40613 24.8325ZM22.3094 17.4841L13.5674 26.2261C12.961 26.8325 12.961 27.8132 13.5674 28.4132L14.6642 29.5099C15.2706 30.1164 16.2513 30.1164 16.8513 29.5099L23.4061 22.9551L29.961 29.5099C30.5674 30.1164 31.5481 30.1164 32.1481 29.5099L33.2448 28.4132C33.8513 27.8067 33.8513 26.8261 33.2448 26.2261L24.5029 17.4841C23.8965 16.8777 22.9158 16.8777 22.3094 17.4841Z" fill="black"/>
</svg>
