<svg width="44" height="44" viewBox="0 0 44 44" fill="none" xmlns="http://www.w3.org/2000/svg">
<path d="M22 16C22.2652 16 22.5196 15.8946 22.7071 15.7071C22.8946 15.5196 23 15.2652 23 15V13C23 12.7348 22.8946 12.4804 22.7071 12.2929C22.5196 12.1054 22.2652 12 22 12C21.7348 12 21.4804 12.1054 21.2929 12.2929C21.1054 12.4804 21 12.7348 21 13V15C21 15.2652 21.1054 15.5196 21.2929 15.7071C21.4804 15.8946 21.7348 16 22 16ZM31 21H29C28.7348 21 28.4804 21.1054 28.2929 21.2929C28.1054 21.4804 28 21.7348 28 22C28 22.2652 28.1054 22.5196 28.2929 22.7071C28.4804 22.8946 28.7348 23 29 23H31C31.2652 23 31.5196 22.8946 31.7071 22.7071C31.8946 22.5196 32 22.2652 32 22C32 21.7348 31.8946 21.4804 31.7071 21.2929C31.5196 21.1054 31.2652 21 31 21ZM16 22C16 21.7348 15.8946 21.4804 15.7071 21.2929C15.5196 21.1054 15.2652 21 15 21H13C12.7348 21 12.4804 21.1054 12.2929 21.2929C12.1054 21.4804 12 21.7348 12 22C12 22.2652 12.1054 22.5196 12.2929 22.7071C12.4804 22.8946 12.7348 23 13 23H15C15.2652 23 15.5196 22.8946 15.7071 22.7071C15.8946 22.5196 16 22.2652 16 22ZM16.22 15C16.0251 14.8157 15.7649 14.7163 15.4967 14.7238C15.2285 14.7313 14.9743 14.8451 14.79 15.04C14.6057 15.2349 14.5063 15.4951 14.5138 15.7633C14.5213 16.0315 14.6351 16.2857 14.83 16.47L16.27 17.86C16.3666 17.9533 16.4811 18.0262 16.6065 18.0743C16.7319 18.1224 16.8658 18.1448 17 18.14C17.1347 18.1395 17.2679 18.1118 17.3916 18.0585C17.5154 18.0052 17.6271 17.9275 17.72 17.83C17.9063 17.6426 18.0108 17.3892 18.0108 17.125C18.0108 16.8608 17.9063 16.6074 17.72 16.42L16.22 15ZM27 18.14C27.2575 18.139 27.5046 18.0387 27.69 17.86L29.13 16.47C29.3057 16.2865 29.4049 16.0429 29.4075 15.7889C29.4101 15.5348 29.3159 15.2893 29.1441 15.1022C28.9722 14.915 28.7356 14.8003 28.4822 14.7814C28.2289 14.7624 27.9778 14.8406 27.78 15L26.34 16.42C26.1537 16.6074 26.0492 16.8608 26.0492 17.125C26.0492 17.3892 26.1537 17.6426 26.34 17.83C26.5131 18.0127 26.7488 18.1234 27 18.14ZM22 28C21.7348 28 21.4804 28.1054 21.2929 28.2929C21.1054 28.4804 21 28.7348 21 29V31C21 31.2652 21.1054 31.5196 21.2929 31.7071C21.4804 31.8946 21.7348 32 22 32C22.2652 32 22.5196 31.8946 22.7071 31.7071C22.8946 31.5196 23 31.2652 23 31V29C23 28.7348 22.8946 28.4804 22.7071 28.2929C22.5196 28.1054 22.2652 28 22 28ZM27.73 26.14C27.539 25.9557 27.2827 25.8548 27.0173 25.8594C26.752 25.8641 26.4993 25.974 26.315 26.165C26.1307 26.356 26.0298 26.6123 26.0344 26.8777C26.0391 27.143 26.149 27.3957 26.34 27.58L27.78 29C27.9654 29.1787 28.2125 29.279 28.47 29.28C28.604 29.2808 28.7368 29.2546 28.8605 29.2031C28.9841 29.1516 29.0962 29.0757 29.19 28.98C29.2837 28.887 29.3581 28.7764 29.4089 28.6546C29.4597 28.5327 29.4858 28.402 29.4858 28.27C29.4858 28.138 29.4597 28.0073 29.4089 27.8854C29.3581 27.7636 29.2837 27.653 29.19 27.56L27.73 26.14ZM16.27 26.14L14.83 27.53C14.7363 27.623 14.6619 27.7336 14.6111 27.8554C14.5603 27.9773 14.5342 28.108 14.5342 28.24C14.5342 28.372 14.5603 28.5027 14.6111 28.6246C14.6619 28.7464 14.7363 28.857 14.83 28.95C14.9238 29.0457 15.0359 29.1216 15.1595 29.1731C15.2832 29.2246 15.416 29.2508 15.55 29.25C15.7965 29.2521 16.0351 29.1631 16.22 29L17.66 27.61C17.851 27.4257 17.9609 27.173 17.9656 26.9077C17.9702 26.6423 17.8693 26.386 17.685 26.195C17.5007 26.004 17.248 25.8941 16.9827 25.8894C16.7173 25.8848 16.461 25.9857 16.27 26.17V26.14ZM22 18C21.2089 18 20.4355 18.2346 19.7777 18.6741C19.1199 19.1136 18.6072 19.7384 18.3045 20.4693C18.0017 21.2002 17.9225 22.0044 18.0769 22.7804C18.2312 23.5563 18.6122 24.269 19.1716 24.8284C19.731 25.3878 20.4437 25.7688 21.2196 25.9231C21.9956 26.0775 22.7998 25.9983 23.5307 25.6955C24.2616 25.3928 24.8864 24.8801 25.3259 24.2223C25.7654 23.5645 26 22.7911 26 22C26 20.9391 25.5786 19.9217 24.8284 19.1716C24.0783 18.4214 23.0609 18 22 18V18Z" fill="#182028"/>
</svg>
