<svg width="44" height="44" viewBox="0 0 44 44" fill="none" xmlns="http://www.w3.org/2000/svg">
<path fill-rule="evenodd" clip-rule="evenodd" d="M8.66666 14C8.66666 13.2636 9.26361 12.6667 9.99999 12.6667H34C34.7364 12.6667 35.3333 13.2636 35.3333 14C35.3333 14.7364 34.7364 15.3333 34 15.3333H9.99999C9.26361 15.3333 8.66666 14.7364 8.66666 14ZM8.66666 22C8.66666 21.2636 9.26361 20.6667 9.99999 20.6667H34C34.7364 20.6667 35.3333 21.2636 35.3333 22C35.3333 22.7364 34.7364 23.3333 34 23.3333H9.99999C9.26361 23.3333 8.66666 22.7364 8.66666 22ZM9.99999 28.6667C9.26361 28.6667 8.66666 29.2636 8.66666 30C8.66666 30.7364 9.26361 31.3333 9.99999 31.3333H34C34.7364 31.3333 35.3333 30.7364 35.3333 30C35.3333 29.2636 34.7364 28.6667 34 28.6667H9.99999Z" fill="#182028"/>
</svg>
