<svg width="44" height="44" viewBox="0 0 44 44" fill="none" xmlns="http://www.w3.org/2000/svg">
<path d="M15.0589 20.6465L14.2053 21.5H15.4124H31C31.2739 21.5 31.5 21.7261 31.5 22C31.5 22.2739 31.2739 22.5 31 22.5H15.4124H14.2053L15.0589 23.3536L19.9389 28.2336C19.985 28.2797 20.0217 28.3345 20.0466 28.3948C20.0716 28.4551 20.0845 28.5197 20.0845 28.585C20.0845 28.6503 20.0716 28.7149 20.0466 28.7752C20.0217 28.8355 19.985 28.8903 19.9389 28.9365C19.8927 28.9826 19.8379 29.0192 19.7776 29.0442C19.7173 29.0692 19.6527 29.082 19.5874 29.082C19.5222 29.082 19.4575 29.0692 19.3972 29.0442C19.3369 29.0192 19.2821 28.9826 19.236 28.9365L12.646 22.3465L12.6456 22.3461C12.5995 22.3 12.5628 22.2453 12.5379 22.1851C12.5129 22.1248 12.5 22.0602 12.5 21.995C12.5 21.9298 12.5129 21.8652 12.5379 21.805C12.5628 21.7447 12.5995 21.69 12.6456 21.6439L12.646 21.6436L19.236 15.0536L19.2364 15.0532C19.2824 15.007 19.3372 14.9704 19.3974 14.9454C19.4576 14.9204 19.5222 14.9076 19.5874 14.9076C19.6527 14.9076 19.7172 14.9204 19.7775 14.9454C19.8377 14.9704 19.8925 15.007 19.9385 15.0532L19.9389 15.0536C20.1336 15.2483 20.1336 15.5717 19.9389 15.7665L15.0589 20.6465Z" stroke="#182028"/>
</svg>
