<svg width="44" height="44" viewBox="0 0 44 44" fill="none" xmlns="http://www.w3.org/2000/svg">
<path d="M30.5714 12H13.4241C12.6384 12 12 12.6473 12 13.442V30.558C12 31.3527 12.6384 32 13.4241 32H30.5714C31.3571 32 32 31.3527 32 30.558V13.442C32 12.6473 31.3571 12 30.5714 12ZM18.0446 29.1429H15.0804V19.5982H18.0491V29.1429H18.0446ZM16.5625 18.2946C15.6116 18.2946 14.8438 17.5223 14.8438 16.5759C14.8438 15.6295 15.6116 14.8571 16.5625 14.8571C17.5089 14.8571 18.2813 15.6295 18.2813 16.5759C18.2813 17.5268 17.5134 18.2946 16.5625 18.2946V18.2946ZM29.1562 29.1429H26.192V24.5C26.192 23.3929 26.1696 21.9688 24.6518 21.9688C23.1071 21.9688 22.8705 23.1741 22.8705 24.4196V29.1429H19.9063V19.5982H22.75V20.9018H22.7902C23.1875 20.1518 24.1563 19.3616 25.5982 19.3616C28.5982 19.3616 29.1562 21.3393 29.1562 23.9107V29.1429V29.1429Z" fill="#182028"/>
</svg>
