<svg width="44" height="44" viewBox="0 0 44 44" fill="none" xmlns="http://www.w3.org/2000/svg">
<path d="M22 12C16.48 12 12 16.48 12 22C12 27.52 16.48 32 22 32C27.51 32 32 27.52 32 22C32 16.48 27.51 12 22 12ZM28.605 16.61C29.8357 18.1093 30.5167 19.9844 30.535 21.924C30.254 21.87 27.434 21.295 24.592 21.653C24.527 21.512 24.472 21.36 24.408 21.208C24.231 20.791 24.043 20.3789 23.844 19.972C26.989 18.692 28.421 16.848 28.605 16.61V16.61ZM22 13.475C24.17 13.475 26.154 14.289 27.662 15.623C27.51 15.839 26.219 17.564 23.182 18.703C21.783 16.133 20.232 14.028 19.993 13.703C20.6509 13.5492 21.3244 13.4727 22 13.475V13.475ZM18.367 14.278C19.5114 15.8643 20.5687 17.5118 21.534 19.213C17.542 20.276 14.017 20.253 13.638 20.253C13.9128 18.9601 14.4826 17.7482 15.3029 16.7118C16.1232 15.6754 17.1718 14.8424 18.367 14.278V14.278ZM13.453 22.01V21.75C13.823 21.76 17.965 21.815 22.228 20.535C22.478 21.012 22.705 21.5 22.922 21.988C22.813 22.021 22.694 22.053 22.586 22.086C18.182 23.506 15.839 27.389 15.644 27.715C14.2338 26.1495 13.4536 24.117 13.454 22.01H13.453ZM22 30.547C20.1014 30.5502 18.2567 29.9164 16.761 28.747C16.913 28.432 18.649 25.091 23.464 23.41C23.486 23.4 23.497 23.4 23.518 23.388C24.3303 25.4834 24.9408 27.6516 25.341 29.863C24.2858 30.317 23.1487 30.5498 22 30.547V30.547ZM26.761 29.082C26.675 28.562 26.219 26.067 25.101 22.998C27.781 22.575 30.124 23.269 30.416 23.367C30.2336 24.5201 29.8148 25.623 29.1858 26.6065C28.5568 27.59 27.7313 28.4328 26.761 29.082Z" fill="#182028"/>
</svg>
