<svg width="44" height="44" viewBox="0 0 44 44" fill="none" xmlns="http://www.w3.org/2000/svg">
<path d="M18.6895 28.104C18.6895 28.1867 18.5968 28.2529 18.4798 28.2529C18.3468 28.2653 18.254 28.1991 18.254 28.104C18.254 28.0213 18.3468 27.9551 18.4637 27.9551C18.5847 27.9427 18.6895 28.0089 18.6895 28.104ZM17.4355 27.9179C17.4073 28.0006 17.4879 28.0957 17.6089 28.1205C17.7137 28.1619 17.8347 28.1205 17.8589 28.0378C17.8831 27.9551 17.8065 27.86 17.6855 27.8228C17.5806 27.7938 17.4637 27.8352 17.4355 27.9179ZM19.2177 27.8476C19.1008 27.8765 19.0202 27.9551 19.0323 28.0502C19.0444 28.1329 19.1492 28.1867 19.2702 28.1577C19.3871 28.1288 19.4677 28.0502 19.4556 27.9675C19.4435 27.8889 19.3347 27.8352 19.2177 27.8476ZM21.871 12C16.2782 12 12 16.3548 12 22.0908C12 26.6772 14.8145 30.6019 18.8347 31.9832C19.3508 32.0783 19.5323 31.7516 19.5323 31.4827C19.5323 31.2263 19.5202 29.812 19.5202 28.9435C19.5202 28.9435 16.6976 29.5638 16.1048 27.7111C16.1048 27.7111 15.6452 26.5076 14.9839 26.1975C14.9839 26.1975 14.0605 25.5482 15.0484 25.5606C15.0484 25.5606 16.0524 25.6433 16.6048 26.6276C17.4879 28.2239 18.9677 27.7649 19.5444 27.4919C19.6371 26.8302 19.8992 26.3712 20.1895 26.0982C17.9355 25.8418 15.6613 25.5068 15.6613 21.5284C15.6613 20.3911 15.9677 19.8204 16.6129 19.0925C16.5081 18.8237 16.1653 17.7154 16.7177 16.2845C17.5605 16.0157 19.5 17.4011 19.5 17.4011C20.3065 17.1695 21.1734 17.0496 22.0323 17.0496C22.8911 17.0496 23.7581 17.1695 24.5645 17.4011C24.5645 17.4011 26.504 16.0115 27.3468 16.2845C27.8992 17.7195 27.5565 18.8237 27.4516 19.0925C28.0968 19.8245 28.4919 20.3952 28.4919 21.5284C28.4919 25.5192 26.1169 25.8377 23.8629 26.0982C24.2339 26.4249 24.5484 27.0453 24.5484 28.0171C24.5484 29.4108 24.5363 31.1354 24.5363 31.4745C24.5363 31.7433 24.7218 32.07 25.2339 31.9749C29.2661 30.6019 32 26.6772 32 22.0908C32 16.3548 27.4637 12 21.871 12ZM15.9194 26.2636C15.8669 26.305 15.879 26.4001 15.9476 26.4787C16.0121 26.5449 16.1048 26.5738 16.1573 26.52C16.2097 26.4787 16.1976 26.3836 16.129 26.305C16.0645 26.2388 15.9718 26.2099 15.9194 26.2636ZM15.4839 25.9287C15.4556 25.9824 15.496 26.0486 15.5766 26.0899C15.6411 26.1313 15.7218 26.1189 15.75 26.061C15.7782 26.0072 15.7379 25.9411 15.6573 25.8997C15.5766 25.8749 15.5121 25.8873 15.4839 25.9287ZM16.7903 27.4009C16.7258 27.4547 16.75 27.5788 16.8427 27.6573C16.9355 27.7524 17.0524 27.7649 17.1048 27.6987C17.1573 27.6449 17.1331 27.5209 17.0524 27.4423C16.9637 27.3472 16.8427 27.3348 16.7903 27.4009ZM16.3306 26.793C16.2661 26.8343 16.2661 26.9419 16.3306 27.037C16.3952 27.1321 16.504 27.1735 16.5565 27.1321C16.621 27.0783 16.621 26.9708 16.5565 26.8757C16.5 26.7806 16.3952 26.7392 16.3306 26.793Z" fill="#182028"/>
</svg>
