<svg width="44" height="44" viewBox="0 0 44 44" fill="none" xmlns="http://www.w3.org/2000/svg">
<g clip-path="url(#clip0)">
<path fill-rule="evenodd" clip-rule="evenodd" d="M21.0475 8.66666H22.9523V13.4286H21.0475V8.66666ZM27.4162 15.238L30.7553 11.898L32.1019 13.2457L28.7629 16.5847L27.4162 15.238ZM35.3333 21.0476H30.5714V22.9524H35.3333V21.0476ZM27.4162 28.7619L28.7629 27.4152L32.1019 30.7543L30.7553 32.1019L27.4162 28.7619ZM22.9523 30.5714H21.0475V35.3334H22.9523V30.5714ZM11.899 30.7543L15.2381 27.4152L16.5847 28.7629L13.2457 32.1019L11.899 30.7543ZM13.4286 21.0476H8.66666V22.9524H13.4286V21.0476ZM11.899 13.2457L13.2457 11.898L16.5847 15.238L15.2381 16.5847L11.899 13.2457ZM18.8254 17.2487C19.7651 16.6208 20.8699 16.2857 22.0001 16.2857C23.5156 16.2857 24.9691 16.8877 26.0407 17.9594C27.1123 19.031 27.7144 20.4845 27.7144 22C27.7144 23.1302 27.3792 24.235 26.7513 25.1747C26.1235 26.1144 25.231 26.8468 24.1869 27.2793C23.1427 27.7118 21.9938 27.8249 20.8853 27.6045C19.7768 27.384 18.7586 26.8397 17.9595 26.0406C17.1603 25.2414 16.6161 24.2232 16.3956 23.1148C16.1751 22.0063 16.2883 20.8574 16.7208 19.8132C17.1533 18.7691 17.8857 17.8766 18.8254 17.2487Z" fill="black"/>
</g>
<defs>
<clipPath id="clip0">
<rect width="32" height="32" fill="white" transform="translate(6 6)"/>
</clipPath>
</defs>
</svg>
