<svg width="44" height="44" viewBox="0 0 44 44" fill="none" xmlns="http://www.w3.org/2000/svg">
<path d="M22.2515 28.9953H22.1614C20.9247 28.9858 19.7023 28.7298 18.5658 28.242C17.4294 27.7543 16.4016 27.0447 15.5428 26.1549C13.9502 24.4518 13.0449 22.2192 13.0016 19.8879C12.9583 17.5566 13.7801 15.2919 15.3083 13.5309C16.2929 12.4275 17.5306 11.5796 18.9152 11.0602C19.0767 10.998 19.2528 10.9836 19.4223 11.0188C19.5918 11.054 19.7475 11.1372 19.871 11.2585C19.9854 11.3751 20.0659 11.5206 20.104 11.6794C20.1421 11.8383 20.1364 12.0044 20.0874 12.1602C19.5932 13.5137 19.4953 14.98 19.8052 16.3871C20.115 17.7942 20.8198 19.0837 21.8367 20.1044C22.8632 21.1182 24.1558 21.8206 25.5649 22.1301C26.974 22.4397 28.442 22.3439 29.7989 21.8537C29.9604 21.7968 30.1347 21.7871 30.3016 21.8257C30.4684 21.8643 30.6207 21.9496 30.7409 22.0716C30.861 22.1936 30.9439 22.3473 30.9799 22.5147C31.0158 22.6821 31.0034 22.8563 30.9441 23.0169C30.4834 24.2466 29.7638 25.3629 28.834 26.2901C27.9692 27.1524 26.9424 27.8353 25.8127 28.2996C24.6831 28.7638 23.4728 29.0002 22.2515 28.9953V28.9953Z" fill="#182028"/>
</svg>
