<svg width="44" height="44" viewBox="0 0 44 44" fill="none" xmlns="http://www.w3.org/2000/svg">
<path d="M15.4919 14.6598L15.5199 14.6868L21.6601 20.8281L22.0136 21.1817L22.3672 20.8281L28.5381 14.6572C28.6451 14.5552 28.7878 14.4987 28.9358 14.5C29.085 14.5013 29.2278 14.5612 29.3333 14.6667C29.4388 14.7722 29.4987 14.915 29.5 15.0642C29.5013 15.2122 29.4448 15.3549 29.3428 15.4619L23.1719 21.6328L22.8184 21.9863L23.1719 22.3399L29.3427 28.5107C29.4448 28.6178 29.5013 28.7604 29.5 28.9084C29.4987 29.0577 29.4388 29.2004 29.3333 29.306C29.2278 29.4115 29.085 29.4713 28.9358 29.4726C28.7878 29.4739 28.6451 29.4175 28.5381 29.3154L22.3672 23.1446L22.0137 22.791L21.6602 23.1445L15.4847 29.3189L15.4846 29.3189L15.4786 29.3252C15.426 29.3795 15.3632 29.4229 15.2938 29.4527C15.2244 29.4826 15.1497 29.4983 15.0741 29.4989C14.9985 29.4996 14.9236 29.4852 14.8536 29.4565C14.7837 29.4279 14.7201 29.3857 14.6667 29.3322C14.6133 29.2788 14.571 29.2152 14.5424 29.1453C14.5138 29.0753 14.4994 29.0004 14.5 28.9248C14.5007 28.8493 14.5164 28.7746 14.5462 28.7051C14.576 28.6357 14.6194 28.5729 14.6738 28.5204L14.6738 28.5204L14.6799 28.5143L20.8554 22.3399L21.209 21.9864L20.8554 21.6328L14.6846 15.4619C14.5825 15.3549 14.5261 15.2122 14.5274 15.0642C14.5287 14.915 14.5885 14.7722 14.694 14.6667C14.7996 14.5612 14.9423 14.5013 15.0916 14.5C15.2408 14.4987 15.3846 14.5561 15.4919 14.6598Z" stroke="#182028"/>
</svg>
